<svg xmlns="http://www.w3.org/2000/svg" width="32" height="33" viewBox="0 0 32 33" fill="none">
  <path d="M4 5.50001C4 5.2348 4.10536 4.98044 4.29289 4.79291C4.48043 4.60537 4.73478 4.50001 5 4.50001C5.26522 4.50001 5.51957 4.60537 5.70711 4.79291C5.89464 4.98044 6 5.2348 6 5.50001V27.5C6 27.7652 5.89464 28.0196 5.70711 28.2071C5.51957 28.3947 5.26522 28.5 5 28.5C4.73478 28.5 4.48043 28.3947 4.29289 28.2071C4.10536 28.0196 4 27.7652 4 27.5V5.50001ZM28 6.83735C28 4.96001 25.896 3.85068 24.3467 4.91201L10.3507 14.504C10.0392 14.7175 9.78412 15.0035 9.60748 15.3373C9.43085 15.6711 9.33788 16.0428 9.33657 16.4205C9.33526 16.7982 9.42564 17.1705 9.59996 17.5056C9.77427 17.8406 10.0273 18.1283 10.3373 18.344L24.336 28.08C25.8827 29.156 28.0013 28.048 28.0013 26.164L28 6.83735Z" fill="#333333"/>
</svg>