<svg id="Calque_1" data-name="Calque 1" xmlns="http://www.w3.org/2000/svg" xmlns:xlink="http://www.w3.org/1999/xlink" viewBox="0 0 1280 458"><defs><style>.cls-1{font-size:108.79px;}.cls-1,.cls-2,.cls-3{fill:#fff;}.cls-1,.cls-4{font-family:Montserrat-ExtraBold, Montserrat;font-weight:800;}.cls-2{font-size:82.88px;}.cls-2,.cls-5{font-family:CrimsonPro-MediumItalic, Crimson Pro;font-weight:500;font-style:italic;}.cls-4{font-size:110.28px;}.cls-5{font-size:83.86px;}.cls-6{fill:url(#Dégradé_sans_nom_9);}.cls-7{fill:url(#Dégradé_sans_nom_9-2);}.cls-8{fill:url(#Dégradé_sans_nom_9-3);}.cls-9{fill:url(#Dégradé_sans_nom_9-4);}.cls-10{fill:url(#Dégradé_sans_nom_9-5);}.cls-11{fill:url(#Dégradé_sans_nom_9-6);}.cls-12{fill:url(#Dégradé_sans_nom_9-7);}.cls-13{fill:url(#Dégradé_sans_nom_9-8);}.cls-14{fill:url(#Dégradé_sans_nom_9-9);}.cls-15{fill:url(#Dégradé_sans_nom_9-10);}</style><linearGradient id="Dégradé_sans_nom_9" x1="266.98" y1="102.47" x2="263.06" y2="327.35" gradientUnits="userSpaceOnUse"><stop offset="0" stop-color="#1e4960"/><stop offset="0.15" stop-color="#195b6f"/><stop offset="0.73" stop-color="#0798a3"/><stop offset="1" stop-color="#00b0b8"/></linearGradient><linearGradient id="Dégradé_sans_nom_9-2" x1="266.64" y1="102.47" x2="262.72" y2="327.34" xlink:href="#Dégradé_sans_nom_9"/><linearGradient id="Dégradé_sans_nom_9-3" x1="287.69" y1="102.83" x2="283.76" y2="327.71" xlink:href="#Dégradé_sans_nom_9"/><linearGradient id="Dégradé_sans_nom_9-4" x1="245.97" y1="102.1" x2="242.05" y2="326.98" xlink:href="#Dégradé_sans_nom_9"/><linearGradient id="Dégradé_sans_nom_9-5" x1="225.14" y1="101.74" x2="221.21" y2="326.62" xlink:href="#Dégradé_sans_nom_9"/><linearGradient id="Dégradé_sans_nom_9-6" x1="307.32" y1="103.17" x2="303.4" y2="328.05" xlink:href="#Dégradé_sans_nom_9"/><linearGradient id="Dégradé_sans_nom_9-7" x1="326.51" y1="103.51" x2="322.58" y2="328.39" xlink:href="#Dégradé_sans_nom_9"/><linearGradient id="Dégradé_sans_nom_9-8" x1="345.62" y1="103.84" x2="341.7" y2="328.72" xlink:href="#Dégradé_sans_nom_9"/><linearGradient id="Dégradé_sans_nom_9-9" x1="185.31" y1="101.05" x2="181.39" y2="325.93" xlink:href="#Dégradé_sans_nom_9"/><linearGradient id="Dégradé_sans_nom_9-10" x1="204.43" y1="101.38" x2="200.51" y2="326.26" xlink:href="#Dégradé_sans_nom_9"/></defs><text class="cls-1" transform="translate(469.34 221.53)">NEXTSound</text><text class="cls-2" transform="translate(469.24 307.76)">La musique à volonté</text><path class="cls-3" d="M288.16,119.79h-51c-61.5,0-107.87,43-107.87,100.12v52.21a27.57,27.57,0,0,0,27.57,27.57h0a5.9,5.9,0,0,1,5.9,5.9V315.8h11.1V320c0,10.21,7.86,19.11,18.07,19.42a18.65,18.65,0,0,0,19.21-18.64V271.64c0-10.21-7.86-19.11-18.07-19.42a18.64,18.64,0,0,0-19.21,18.63v.88h-11.1V286a5.9,5.9,0,0,1-5.9,5.9h0A19.82,19.82,0,0,1,137,272.12V219.91c0-53.52,42.11-92.37,100.12-92.37h51c58,0,100.13,38.85,100.13,92.37v52.21a19.82,19.82,0,0,1-19.82,19.82h0a5.9,5.9,0,0,1-5.9-5.9V271.73H351.47v-.09c0-10.21-7.87-19.11-18.07-19.42a18.64,18.64,0,0,0-19.22,18.63V320c0,10.21,7.87,19.11,18.07,19.42a18.65,18.65,0,0,0,19.22-18.64v-5h11.09V305.59a5.9,5.9,0,0,1,5.9-5.9h0A27.57,27.57,0,0,0,396,272.12V219.91C396,162.83,349.66,119.79,288.16,119.79Z"/><path class="cls-3" d="M263,147.91a7,7,0,0,0-7,7V262.26a7,7,0,1,0,14,0V154.92A7,7,0,0,0,263,147.91Z"/><path class="cls-3" d="M283.67,168.82a7,7,0,0,0-7,7v75.34a7,7,0,1,0,14,0V175.83A7,7,0,0,0,283.67,168.82Z"/><path class="cls-3" d="M242.54,163.45a7,7,0,0,0-7,7V245.8a7,7,0,0,0,14,0V170.46A7,7,0,0,0,242.54,163.45Z"/><path class="cls-3" d="M221.82,182.68a7,7,0,0,0-7,7v50.92a7,7,0,0,0,14,0V189.69A7,7,0,0,0,221.82,182.68Z"/><path class="cls-3" d="M303.18,175.66a7,7,0,0,0-7,7V233.6a7,7,0,0,0,14,0V182.67A7,7,0,0,0,303.18,175.66Z"/><path class="cls-3" d="M329.08,222.92V201.43a7,7,0,1,0-14,0v21.49a7,7,0,0,0,14,0Z"/><path class="cls-3" d="M348,214.52v-4.69a7,7,0,0,0-14,0v4.69a7,7,0,1,0,14,0Z"/><path class="cls-3" d="M175.5,209.83v4.69a7,7,0,1,0,14,0v-4.69a7,7,0,0,0-14,0Z"/><path class="cls-3" d="M194.39,201.43v21.49a7,7,0,0,0,14,0V201.43a7,7,0,1,0-14,0Z"/><text class="cls-4" transform="translate(450.85 221.95)">NEXTSound</text><text class="cls-5" transform="translate(450.75 316.55)">La musique à volonté</text><path class="cls-6" d="M290.34,116.11H238.7c-62.24,0-109.17,43.56-109.17,101.32v52.84a27.9,27.9,0,0,0,27.9,27.9h0a6,6,0,0,1,6,6v10.33h11.23v4.24c0,10.33,8,19.34,18.29,19.65a18.86,18.86,0,0,0,19.45-18.86V269.78c0-10.33-8-19.34-18.29-19.65A18.87,18.87,0,0,0,174.63,269v.88H163.4v14.48a6,6,0,0,1-6,6h0a20.06,20.06,0,0,1-20.06-20.05V217.43C137.37,163.27,180,124,238.7,124h51.64c58.72,0,101.33,39.32,101.33,93.48v52.84a20.06,20.06,0,0,1-20.06,20.05h0a6,6,0,0,1-6-6V269.87H354.41v-.09c0-10.33-8-19.34-18.29-19.65A18.87,18.87,0,0,0,316.67,269v49.72c0,10.33,8,19.34,18.29,19.65a18.87,18.87,0,0,0,19.45-18.86v-5h11.23V304.14a6,6,0,0,1,6-6h0a27.9,27.9,0,0,0,27.9-27.9V217.43C399.51,159.67,352.58,116.11,290.34,116.11Z"/><path class="cls-7" d="M264.83,144.56a7.09,7.09,0,0,0-7.09,7.1V260.28a7.09,7.09,0,1,0,14.18,0V151.66A7.09,7.09,0,0,0,264.83,144.56Z"/><path class="cls-8" d="M285.8,165.73a7.08,7.08,0,0,0-7.09,7.09v76.25a7.09,7.09,0,1,0,14.18,0V172.82A7.08,7.08,0,0,0,285.8,165.73Z"/><path class="cls-9" d="M244.17,160.3a7.08,7.08,0,0,0-7.09,7.09v76.25a7.09,7.09,0,0,0,14.18,0V167.39A7.08,7.08,0,0,0,244.17,160.3Z"/><path class="cls-10" d="M223.2,179.75a7.08,7.08,0,0,0-7.09,7.09v51.54a7.09,7.09,0,0,0,14.18,0V186.84A7.08,7.08,0,0,0,223.2,179.75Z"/><path class="cls-11" d="M305.54,172.65a7.1,7.1,0,0,0-7.1,7.09v51.54a7.1,7.1,0,0,0,14.19,0V179.74A7.1,7.1,0,0,0,305.54,172.65Z"/><path class="cls-12" d="M331.75,220.47V198.72a7.1,7.1,0,0,0-14.19,0v21.75a7.1,7.1,0,0,0,14.19,0Z"/><path class="cls-13" d="M350.87,212v-4.75a7.1,7.1,0,0,0-14.19,0V212a7.1,7.1,0,0,0,14.19,0Z"/><path class="cls-14" d="M176.33,207.22V212a7.09,7.09,0,0,0,14.18,0v-4.75a7.09,7.09,0,0,0-14.18,0Z"/><path class="cls-15" d="M195.45,198.72v21.75a7.09,7.09,0,0,0,14.18,0V198.72a7.09,7.09,0,0,0-14.18,0Z"/></svg>