<svg id="Calque_1" data-name="Calque 1" xmlns="http://www.w3.org/2000/svg" xmlns:xlink="http://www.w3.org/1999/xlink" viewBox="0 0 1280 353"><defs><style>.cls-1{font-size:139.38px;}.cls-1,.cls-2{fill:#fff;}.cls-1,.cls-3{font-family:Montserrat-ExtraBold, Montserrat;font-weight:800;}.cls-3{font-size:138.53px;}.cls-4{fill:url(#Dégradé_sans_nom_9);}.cls-5{fill:url(#Dégradé_sans_nom_9-2);}.cls-6{fill:url(#Dégradé_sans_nom_9-3);}.cls-7{fill:url(#Dégradé_sans_nom_9-4);}.cls-8{fill:url(#Dégradé_sans_nom_9-5);}.cls-9{fill:url(#Dégradé_sans_nom_9-6);}.cls-10{fill:url(#Dégradé_sans_nom_9-7);}.cls-11{fill:url(#Dégradé_sans_nom_9-8);}.cls-12{fill:url(#Dégradé_sans_nom_9-9);}.cls-13{fill:url(#Dégradé_sans_nom_9-10);}</style><linearGradient id="Dégradé_sans_nom_9" x1="181.47" y1="100.91" x2="178.92" y2="246.75" gradientUnits="userSpaceOnUse"><stop offset="0" stop-color="#1e4960"/><stop offset="0.15" stop-color="#195b6f"/><stop offset="0.73" stop-color="#0798a3"/><stop offset="1" stop-color="#00b0b8"/></linearGradient><linearGradient id="Dégradé_sans_nom_9-2" x1="181.24" y1="100.9" x2="178.7" y2="246.75" xlink:href="#Dégradé_sans_nom_9"/><linearGradient id="Dégradé_sans_nom_9-3" x1="194.9" y1="101.14" x2="192.35" y2="246.99" xlink:href="#Dégradé_sans_nom_9"/><linearGradient id="Dégradé_sans_nom_9-4" x1="167.84" y1="100.67" x2="165.3" y2="246.51" xlink:href="#Dégradé_sans_nom_9"/><linearGradient id="Dégradé_sans_nom_9-5" x1="154.33" y1="100.43" x2="151.78" y2="246.28" xlink:href="#Dégradé_sans_nom_9"/><linearGradient id="Dégradé_sans_nom_9-6" x1="207.63" y1="101.36" x2="205.09" y2="247.21" xlink:href="#Dégradé_sans_nom_9"/><linearGradient id="Dégradé_sans_nom_9-7" x1="220.07" y1="101.58" x2="217.53" y2="247.43" xlink:href="#Dégradé_sans_nom_9"/><linearGradient id="Dégradé_sans_nom_9-8" x1="232.47" y1="101.79" x2="229.93" y2="247.64" xlink:href="#Dégradé_sans_nom_9"/><linearGradient id="Dégradé_sans_nom_9-9" x1="128.5" y1="99.98" x2="125.96" y2="245.83" xlink:href="#Dégradé_sans_nom_9"/><linearGradient id="Dégradé_sans_nom_9-10" x1="140.9" y1="100.2" x2="138.35" y2="246.04" xlink:href="#Dégradé_sans_nom_9"/></defs><text class="cls-1" transform="translate(314.6 230.93)">NEXTSound</text><path class="cls-2" d="M196.1,106.4H162.73c-40.23,0-70.56,28.15-70.56,65.48V206a18,18,0,0,0,18,18h0a3.86,3.86,0,0,1,3.86,3.86v6.68h7.26v2.74c0,6.67,5.15,12.5,11.82,12.7a12.2,12.2,0,0,0,12.57-12.19V205.71c0-6.68-5.15-12.5-11.82-12.7a12.2,12.2,0,0,0-12.57,12.19v.57h-7.26v9.36A3.86,3.86,0,0,1,110.2,219h0a13,13,0,0,1-13-13V171.88c0-35,27.54-60.41,65.49-60.41H196.1c38,0,65.49,25.41,65.49,60.41V206a13,13,0,0,1-13,13h0a3.86,3.86,0,0,1-3.86-3.86v-9.36H237.5v-.06c0-6.67-5.14-12.5-11.81-12.7a12.2,12.2,0,0,0-12.57,12.19v32.14c0,6.67,5.14,12.5,11.82,12.7a12.2,12.2,0,0,0,12.56-12.19V234.6h7.26v-6.68a3.86,3.86,0,0,1,3.86-3.86h0a18,18,0,0,0,18-18V171.88C266.66,134.55,236.33,106.4,196.1,106.4Z"/><path class="cls-2" d="M179.61,124.79a4.58,4.58,0,0,0-4.58,4.58v70.21a4.59,4.59,0,0,0,9.17,0V129.37A4.58,4.58,0,0,0,179.61,124.79Z"/><path class="cls-2" d="M193.17,138.47a4.59,4.59,0,0,0-4.59,4.58v49.28a4.59,4.59,0,0,0,9.17,0V143.05A4.58,4.58,0,0,0,193.17,138.47Z"/><path class="cls-2" d="M166.26,135a4.58,4.58,0,0,0-4.58,4.58v49.28a4.59,4.59,0,0,0,9.17,0V139.54A4.59,4.59,0,0,0,166.26,135Z"/><path class="cls-2" d="M152.71,147.53a4.58,4.58,0,0,0-4.58,4.58v33.31a4.58,4.58,0,0,0,9.16,0V152.11A4.58,4.58,0,0,0,152.71,147.53Z"/><path class="cls-2" d="M205.92,142.94a4.58,4.58,0,0,0-4.58,4.59v33.3a4.59,4.59,0,1,0,9.17,0v-33.3A4.59,4.59,0,0,0,205.92,142.94Z"/><path class="cls-2" d="M222.86,173.85V159.79a4.59,4.59,0,0,0-9.17,0v14.06a4.59,4.59,0,0,0,9.17,0Z"/><path class="cls-2" d="M235.22,168.35v-3.06a4.59,4.59,0,1,0-9.17,0v3.06a4.59,4.59,0,1,0,9.17,0Z"/><path class="cls-2" d="M122.42,165.29v3.06a4.58,4.58,0,1,0,9.16,0v-3.06a4.58,4.58,0,1,0-9.16,0Z"/><path class="cls-2" d="M134.77,159.79v14.06a4.59,4.59,0,0,0,9.17,0V159.79a4.59,4.59,0,0,0-9.17,0Z"/><text class="cls-3" transform="translate(319.34 223.81)">NEXTSound</text><path class="cls-4" d="M196.62,109.75H163.13c-40.37,0-70.81,28.25-70.81,65.71v34.27a18.1,18.1,0,0,0,18.1,18.1h0a3.87,3.87,0,0,1,3.87,3.87v6.7h7.28v2.75c0,6.7,5.17,12.54,11.86,12.74a12.24,12.24,0,0,0,12.62-12.23V209.41c0-6.7-5.17-12.54-11.86-12.74a12.24,12.24,0,0,0-12.62,12.23v.57h-7.28v9.4a3.87,3.87,0,0,1-3.87,3.87h0a13,13,0,0,1-13-13V175.46c0-35.13,27.64-60.62,65.72-60.62h33.49c38.08,0,65.71,25.49,65.71,60.62v34.27a13,13,0,0,1-13,13h0a3.88,3.88,0,0,1-3.87-3.87v-9.4h-7.28v-.06c0-6.7-5.17-12.54-11.86-12.74A12.23,12.23,0,0,0,213.7,208.9v32.25c0,6.7,5.17,12.54,11.87,12.74a12.23,12.23,0,0,0,12.61-12.23V238.4h7.28v-6.7a3.87,3.87,0,0,1,3.87-3.87h0a18.1,18.1,0,0,0,18.09-18.1V175.46C267.42,138,237,109.75,196.62,109.75Z"/><path class="cls-5" d="M180.07,128.2a4.6,4.6,0,0,0-4.6,4.6v70.46a4.6,4.6,0,0,0,9.2,0V132.8A4.6,4.6,0,0,0,180.07,128.2Z"/><path class="cls-6" d="M193.67,141.93a4.6,4.6,0,0,0-4.6,4.6V196a4.6,4.6,0,0,0,9.2,0V146.53A4.6,4.6,0,0,0,193.67,141.93Z"/><path class="cls-7" d="M166.67,138.41a4.6,4.6,0,0,0-4.6,4.6v49.45a4.6,4.6,0,1,0,9.2,0V143A4.6,4.6,0,0,0,166.67,138.41Z"/><path class="cls-8" d="M153.07,151a4.6,4.6,0,0,0-4.6,4.6v33.43a4.6,4.6,0,0,0,9.2,0V155.62A4.6,4.6,0,0,0,153.07,151Z"/><path class="cls-9" d="M206.47,146.42a4.6,4.6,0,0,0-4.6,4.6v33.43a4.6,4.6,0,0,0,9.2,0V151A4.6,4.6,0,0,0,206.47,146.42Z"/><path class="cls-10" d="M223.47,177.44V163.33a4.6,4.6,0,1,0-9.2,0v14.11a4.6,4.6,0,0,0,9.2,0Z"/><path class="cls-11" d="M235.87,171.92v-3.08a4.6,4.6,0,0,0-9.2,0v3.08a4.6,4.6,0,0,0,9.2,0Z"/><path class="cls-12" d="M122.67,168.84v3.08a4.6,4.6,0,0,0,9.2,0v-3.08a4.6,4.6,0,0,0-9.2,0Z"/><path class="cls-13" d="M135.07,163.33v14.11a4.6,4.6,0,1,0,9.2,0V163.33a4.6,4.6,0,1,0-9.2,0Z"/></svg>