<svg id="Calque_1" data-name="Calque 1" xmlns="http://www.w3.org/2000/svg" xmlns:xlink="http://www.w3.org/1999/xlink" viewBox="0 0 1000 1000"><defs><style>.cls-1{font-size:84.75px;}.cls-1,.cls-2,.cls-3{fill:#fff;}.cls-1,.cls-4{font-family:Montserrat-ExtraBold, Montserrat;font-weight:800;}.cls-2{font-size:80.85px;}.cls-2,.cls-6{font-family:CrimsonPro-MediumItalic, Crimson Pro;font-weight:500;font-style:italic;}.cls-4{font-size:85.89px;}.cls-5{letter-spacing:0em;}.cls-6{font-size:81.93px;}.cls-7{fill:url(#Dégradé_sans_nom_2);}.cls-8{fill:url(#Dégradé_sans_nom_2-2);}.cls-9{fill:url(#Dégradé_sans_nom_2-3);}.cls-10{fill:url(#Dégradé_sans_nom_2-4);}.cls-11{fill:url(#Dégradé_sans_nom_2-5);}.cls-12{fill:url(#Dégradé_sans_nom_2-6);}.cls-13{fill:url(#Dégradé_sans_nom_2-7);}.cls-14{fill:url(#Dégradé_sans_nom_2-8);}.cls-15{fill:url(#Dégradé_sans_nom_2-9);}.cls-16{fill:url(#Dégradé_sans_nom_2-10);}</style><linearGradient id="Dégradé_sans_nom_2" x1="504.81" y1="138.87" x2="497.13" y2="579.24" gradientUnits="userSpaceOnUse"><stop offset="0" stop-color="#1e4960"/><stop offset="0.15" stop-color="#195b6f"/><stop offset="0.73" stop-color="#0798a3"/><stop offset="1" stop-color="#00b0b8"/></linearGradient><linearGradient id="Dégradé_sans_nom_2-2" x1="504.14" y1="138.85" x2="496.46" y2="579.23" xlink:href="#Dégradé_sans_nom_2"/><linearGradient id="Dégradé_sans_nom_2-3" x1="545.36" y1="139.57" x2="537.68" y2="579.95" xlink:href="#Dégradé_sans_nom_2"/><linearGradient id="Dégradé_sans_nom_2-4" x1="463.67" y1="138.15" x2="455.99" y2="578.52" xlink:href="#Dégradé_sans_nom_2"/><linearGradient id="Dégradé_sans_nom_2-5" x1="422.87" y1="137.44" x2="415.18" y2="577.81" xlink:href="#Dégradé_sans_nom_2"/><linearGradient id="Dégradé_sans_nom_2-6" x1="583.81" y1="140.24" x2="576.13" y2="580.62" xlink:href="#Dégradé_sans_nom_2"/><linearGradient id="Dégradé_sans_nom_2-7" x1="621.38" y1="140.9" x2="613.7" y2="581.28" xlink:href="#Dégradé_sans_nom_2"/><linearGradient id="Dégradé_sans_nom_2-8" x1="658.81" y1="141.55" x2="651.13" y2="581.93" xlink:href="#Dégradé_sans_nom_2"/><linearGradient id="Dégradé_sans_nom_2-9" x1="344.88" y1="136.08" x2="337.2" y2="576.45" xlink:href="#Dégradé_sans_nom_2"/><linearGradient id="Dégradé_sans_nom_2-10" x1="382.31" y1="136.73" x2="374.63" y2="577.11" xlink:href="#Dégradé_sans_nom_2"/></defs><text class="cls-1" transform="translate(245.29 717.44)">NEXTSound</text><text class="cls-2" transform="translate(171.04 803.04)">La musique à volonté</text><path class="cls-3" d="M550.16,173.51h-99.8c-120.27,0-211,84.18-211,195.8v102.1a53.93,53.93,0,0,0,53.92,53.92h0a11.54,11.54,0,0,1,11.54,11.53v20h21.7V565c0,20,15.38,37.38,35.34,38a36.45,36.45,0,0,0,37.58-36.44V470.46c0-20-15.38-37.37-35.34-38a36.46,36.46,0,0,0-37.58,36.44v1.71h-21.7v28a11.54,11.54,0,0,1-11.54,11.54h0a38.76,38.76,0,0,1-38.76-38.76V369.31c0-104.67,82.35-180.64,195.8-180.64h99.8c113.45,0,195.8,76,195.8,180.64v102.1a38.77,38.77,0,0,1-38.76,38.76h0a11.54,11.54,0,0,1-11.54-11.54v-28H674v-.18c0-20-15.38-37.37-35.34-38A36.47,36.47,0,0,0,601,468.93V565c0,20,15.39,37.37,35.34,38A36.47,36.47,0,0,0,674,566.55v-9.72h21.7v-20a11.54,11.54,0,0,1,11.54-11.53h0a53.93,53.93,0,0,0,53.92-53.92V369.31C761.12,257.69,670.42,173.51,550.16,173.51Z"/><path class="cls-3" d="M500.86,228.5a13.71,13.71,0,0,0-13.71,13.71V452.12a13.71,13.71,0,1,0,27.41,0V242.21A13.7,13.7,0,0,0,500.86,228.5Z"/><path class="cls-3" d="M541.38,269.4a13.71,13.71,0,0,0-13.71,13.71V430.45a13.71,13.71,0,0,0,27.42,0V283.11A13.71,13.71,0,0,0,541.38,269.4Z"/><path class="cls-3" d="M460.93,258.9a13.7,13.7,0,0,0-13.7,13.71V420a13.71,13.71,0,0,0,27.41,0V272.61A13.71,13.71,0,0,0,460.93,258.9Z"/><path class="cls-3" d="M420.41,296.49a13.7,13.7,0,0,0-13.7,13.71v99.59a13.71,13.71,0,0,0,27.41,0V310.2A13.71,13.71,0,0,0,420.41,296.49Z"/><path class="cls-3" d="M579.52,282.78a13.71,13.71,0,0,0-13.71,13.7v99.59a13.71,13.71,0,1,0,27.41,0V296.48A13.7,13.7,0,0,0,579.52,282.78Z"/><path class="cls-3" d="M630.17,375.19v-42a13.71,13.71,0,0,0-27.41,0v42a13.71,13.71,0,0,0,27.41,0Z"/><path class="cls-3" d="M667.11,358.76v-9.17a13.71,13.71,0,1,0-27.41,0v9.17a13.71,13.71,0,1,0,27.41,0Z"/><path class="cls-3" d="M329.84,349.59v9.17a13.71,13.71,0,1,0,27.41,0v-9.17a13.71,13.71,0,1,0-27.41,0Z"/><path class="cls-3" d="M366.78,333.16v42a13.71,13.71,0,0,0,27.41,0v-42a13.71,13.71,0,0,0-27.41,0Z"/><text class="cls-4" transform="translate(241.61 724.88)">NEXT<tspan class="cls-5" x="244.77" y="0">Sound</tspan></text><text class="cls-6" transform="translate(166.37 811.63)">La musique à volonté</text><path class="cls-7" d="M550.56,165.57H449.43c-121.88,0-213.79,85.3-213.79,198.42V467.45a54.64,54.64,0,0,0,54.64,54.65h0A11.69,11.69,0,0,1,302,533.79V554h22v8.3c0,20.23,15.59,37.87,35.81,38.48a37,37,0,0,0,38.08-36.93V466.5c0-20.23-15.59-37.87-35.81-38.48A37,37,0,0,0,324,465v1.72H302V495a11.69,11.69,0,0,1-11.7,11.69h0A39.28,39.28,0,0,1,251,467.45V364c0-106.07,83.45-183.06,198.43-183.06H550.56c115,0,198.43,77,198.43,183.06V467.45a39.28,39.28,0,0,1-39.28,39.28h0A11.69,11.69,0,0,1,698,495V466.67H676v-.17c0-20.23-15.59-37.87-35.81-38.48A37,37,0,0,0,602.12,465v97.38c0,20.23,15.59,37.87,35.81,38.48A37,37,0,0,0,676,563.88V554h22V533.79A11.69,11.69,0,0,1,709.7,522.1h0a54.65,54.65,0,0,0,54.64-54.65V364C764.35,250.87,672.44,165.57,550.56,165.57Z"/><path class="cls-8" d="M500.6,221.29a13.89,13.89,0,0,0-13.89,13.89V447.91a13.89,13.89,0,1,0,27.78,0V235.18A13.89,13.89,0,0,0,500.6,221.29Z"/><path class="cls-9" d="M541.67,262.74a13.89,13.89,0,0,0-13.89,13.89V425.94a13.89,13.89,0,0,0,27.78,0V276.63A13.89,13.89,0,0,0,541.67,262.74Z"/><path class="cls-10" d="M460.14,252.1A13.89,13.89,0,0,0,446.25,266V415.3a13.89,13.89,0,1,0,27.78,0V266A13.89,13.89,0,0,0,460.14,252.1Z"/><path class="cls-11" d="M419.08,290.2a13.89,13.89,0,0,0-13.89,13.89V405A13.89,13.89,0,0,0,433,405V304.09A13.89,13.89,0,0,0,419.08,290.2Z"/><path class="cls-12" d="M580.32,276.3a13.89,13.89,0,0,0-13.89,13.89V391.11a13.89,13.89,0,1,0,27.77,0V290.19A13.88,13.88,0,0,0,580.32,276.3Z"/><path class="cls-13" d="M631.65,369.94V327.36a13.89,13.89,0,1,0-27.78,0v42.58a13.89,13.89,0,1,0,27.78,0Z"/><path class="cls-14" d="M669.09,353.3V344a13.89,13.89,0,1,0-27.78,0v9.3a13.89,13.89,0,1,0,27.78,0Z"/><path class="cls-15" d="M327.29,344v9.3a13.89,13.89,0,0,0,27.78,0V344a13.89,13.89,0,0,0-27.78,0Z"/><path class="cls-16" d="M364.73,327.36v42.58a13.89,13.89,0,0,0,27.78,0V327.36a13.89,13.89,0,0,0-27.78,0Z"/></svg>