<svg id="Calque_1" data-name="Calque 1" xmlns="http://www.w3.org/2000/svg" xmlns:xlink="http://www.w3.org/1999/xlink" viewBox="0 0 1280 458"><defs><style>.cls-1{fill:url(#Dégradé_sans_nom_9);}.cls-2{font-size:108.79px;font-family:Montserrat-ExtraBold, Montserrat;font-weight:800;}.cls-2,.cls-3,.cls-4{fill:#fff;}.cls-3{font-size:82.88px;font-family:CrimsonPro-MediumItalic, Crimson Pro;font-weight:500;font-style:italic;}</style><linearGradient id="Dégradé_sans_nom_9" x1="636.53" y1="19.11" x2="643.3" y2="427.22" gradientUnits="userSpaceOnUse"><stop offset="0" stop-color="#1e4960"/><stop offset="0.15" stop-color="#195b6f"/><stop offset="0.73" stop-color="#0798a3"/><stop offset="1" stop-color="#00b0b8"/></linearGradient></defs><rect class="cls-1" x="40" y="34.93" width="1200" height="387.14" rx="62.78"/><text class="cls-2" transform="translate(469.34 221.53)">NEXTSound</text><text class="cls-3" transform="translate(469.24 307.76)">La musique à volonté</text><path class="cls-4" d="M288.16,119.79h-51c-61.5,0-107.87,43-107.87,100.12v52.21a27.57,27.57,0,0,0,27.57,27.57h0a5.9,5.9,0,0,1,5.9,5.9V315.8h11.1V320c0,10.21,7.86,19.11,18.07,19.42a18.65,18.65,0,0,0,19.21-18.64V271.64c0-10.21-7.86-19.11-18.07-19.42a18.64,18.64,0,0,0-19.21,18.63v.88h-11.1V286a5.9,5.9,0,0,1-5.9,5.9h0A19.82,19.82,0,0,1,137,272.12V219.91c0-53.52,42.11-92.37,100.12-92.37h51c58,0,100.13,38.85,100.13,92.37v52.21a19.82,19.82,0,0,1-19.82,19.82h0a5.9,5.9,0,0,1-5.9-5.9V271.73H351.47v-.09c0-10.21-7.87-19.11-18.07-19.42a18.64,18.64,0,0,0-19.22,18.63V320c0,10.21,7.87,19.11,18.07,19.42a18.65,18.65,0,0,0,19.22-18.64v-5h11.09V305.59a5.9,5.9,0,0,1,5.9-5.9h0A27.57,27.57,0,0,0,396,272.12V219.91C396,162.83,349.66,119.79,288.16,119.79Z"/><path class="cls-4" d="M263,147.91a7,7,0,0,0-7,7V262.26a7,7,0,1,0,14,0V154.92A7,7,0,0,0,263,147.91Z"/><path class="cls-4" d="M283.67,168.82a7,7,0,0,0-7,7v75.34a7,7,0,1,0,14,0V175.83A7,7,0,0,0,283.67,168.82Z"/><path class="cls-4" d="M242.54,163.45a7,7,0,0,0-7,7V245.8a7,7,0,0,0,14,0V170.46A7,7,0,0,0,242.54,163.45Z"/><path class="cls-4" d="M221.82,182.68a7,7,0,0,0-7,7v50.92a7,7,0,0,0,14,0V189.69A7,7,0,0,0,221.82,182.68Z"/><path class="cls-4" d="M303.18,175.66a7,7,0,0,0-7,7V233.6a7,7,0,0,0,14,0V182.67A7,7,0,0,0,303.18,175.66Z"/><path class="cls-4" d="M329.08,222.92V201.43a7,7,0,1,0-14,0v21.49a7,7,0,0,0,14,0Z"/><path class="cls-4" d="M348,214.52v-4.69a7,7,0,0,0-14,0v4.69a7,7,0,1,0,14,0Z"/><path class="cls-4" d="M175.5,209.83v4.69a7,7,0,1,0,14,0v-4.69a7,7,0,0,0-14,0Z"/><path class="cls-4" d="M194.39,201.43v21.49a7,7,0,0,0,14,0V201.43a7,7,0,1,0-14,0Z"/></svg>