<svg id="Calque_1" data-name="Calque 1" xmlns="http://www.w3.org/2000/svg" xmlns:xlink="http://www.w3.org/1999/xlink" viewBox="0 0 1000 1000"><defs><style>.cls-1{fill:url(#Dégradé_sans_nom_9);}.cls-2{font-size:84.75px;font-family:Montserrat-ExtraBold, Montserrat;font-weight:800;}.cls-2,.cls-3,.cls-4{fill:#fff;}.cls-3{font-size:80.85px;font-family:CrimsonPro-MediumItalic, Crimson Pro;font-weight:500;font-style:italic;}</style><linearGradient id="Dégradé_sans_nom_9" x1="493.11" y1="68.24" x2="507.05" y2="908.84" gradientUnits="userSpaceOnUse"><stop offset="0" stop-color="#1e4960"/><stop offset="0.15" stop-color="#195b6f"/><stop offset="0.73" stop-color="#0798a3"/><stop offset="1" stop-color="#00b0b8"/></linearGradient></defs><rect class="cls-1" x="109.52" y="87.72" width="781.48" height="823.63" rx="73.9"/><text class="cls-2" transform="translate(245.29 717.44)">NEXTSound</text><text class="cls-3" transform="translate(171.04 803.04)">La musique à volonté</text><path class="cls-4" d="M550.16,173.51h-99.8c-120.27,0-211,84.18-211,195.8v102.1a53.93,53.93,0,0,0,53.92,53.92h0a11.54,11.54,0,0,1,11.54,11.53v20h21.7V565c0,20,15.38,37.38,35.34,38a36.45,36.45,0,0,0,37.58-36.44V470.46c0-20-15.38-37.37-35.34-38a36.46,36.46,0,0,0-37.58,36.44v1.71h-21.7v28a11.54,11.54,0,0,1-11.54,11.54h0a38.76,38.76,0,0,1-38.76-38.76V369.31c0-104.67,82.35-180.64,195.8-180.64h99.8c113.45,0,195.8,76,195.8,180.64v102.1a38.77,38.77,0,0,1-38.76,38.76h0a11.54,11.54,0,0,1-11.54-11.54v-28H674v-.18c0-20-15.38-37.37-35.34-38A36.47,36.47,0,0,0,601,468.93V565c0,20,15.39,37.37,35.34,38A36.47,36.47,0,0,0,674,566.55v-9.72h21.7v-20a11.54,11.54,0,0,1,11.54-11.53h0a53.93,53.93,0,0,0,53.92-53.92V369.31C761.12,257.69,670.42,173.51,550.16,173.51Z"/><path class="cls-4" d="M500.86,228.5a13.71,13.71,0,0,0-13.71,13.71V452.12a13.71,13.71,0,1,0,27.41,0V242.21A13.7,13.7,0,0,0,500.86,228.5Z"/><path class="cls-4" d="M541.38,269.4a13.71,13.71,0,0,0-13.71,13.71V430.45a13.71,13.71,0,0,0,27.42,0V283.11A13.71,13.71,0,0,0,541.38,269.4Z"/><path class="cls-4" d="M460.93,258.9a13.7,13.7,0,0,0-13.7,13.71V420a13.71,13.71,0,0,0,27.41,0V272.61A13.71,13.71,0,0,0,460.93,258.9Z"/><path class="cls-4" d="M420.41,296.49a13.7,13.7,0,0,0-13.7,13.71v99.59a13.71,13.71,0,0,0,27.41,0V310.2A13.71,13.71,0,0,0,420.41,296.49Z"/><path class="cls-4" d="M579.52,282.78a13.71,13.71,0,0,0-13.71,13.7v99.59a13.71,13.71,0,1,0,27.41,0V296.48A13.7,13.7,0,0,0,579.52,282.78Z"/><path class="cls-4" d="M630.17,375.19v-42a13.71,13.71,0,0,0-27.41,0v42a13.71,13.71,0,0,0,27.41,0Z"/><path class="cls-4" d="M667.11,358.76v-9.17a13.71,13.71,0,1,0-27.41,0v9.17a13.71,13.71,0,1,0,27.41,0Z"/><path class="cls-4" d="M329.84,349.59v9.17a13.71,13.71,0,1,0,27.41,0v-9.17a13.71,13.71,0,1,0-27.41,0Z"/><path class="cls-4" d="M366.78,333.16v42a13.71,13.71,0,0,0,27.41,0v-42a13.71,13.71,0,0,0-27.41,0Z"/></svg>