<svg xmlns="http://www.w3.org/2000/svg" width="32" height="33" viewBox="0 0 32 33" fill="none">
  <path d="M4 6.83735C4 4.96001 6.104 3.85068 7.65333 4.91201L21.6507 14.504C21.9622 14.7175 22.2172 15.0035 22.3939 15.3373C22.5705 15.6711 22.6635 16.0428 22.6648 16.4205C22.6661 16.7982 22.5757 17.1705 22.4014 17.5056C22.2271 17.8406 21.974 18.1283 21.664 18.344L7.66533 28.08C6.12 29.156 4 28.0467 4 26.164V6.83735ZM28 5.50001C28 5.2348 27.8946 4.98044 27.7071 4.79291C27.5196 4.60537 27.2652 4.50001 27 4.50001C26.7348 4.50001 26.4804 4.60537 26.2929 4.79291C26.1054 4.98044 26 5.2348 26 5.50001V27.5C26 27.7652 26.1054 28.0196 26.2929 28.2071C26.4804 28.3947 26.7348 28.5 27 28.5C27.2652 28.5 27.5196 28.3947 27.7071 28.2071C27.8946 28.0196 28 27.7652 28 27.5V5.50001Z" fill="#333333"/>
</svg>