<svg xmlns="http://www.w3.org/2000/svg" width="34" height="34" viewBox="0 0 34 34" fill="none">
  <path d="M17 31.1667C24.824 31.1667 31.1667 24.824 31.1667 17C31.1667 9.17596 24.824 2.83333 17 2.83333C9.17598 2.83333 2.83334 9.17596 2.83334 17C2.83334 24.824 9.17598 31.1667 17 31.1667Z" stroke="#333333" stroke-width="1.5" stroke-linecap="round" stroke-linejoin="round"/>
  <path d="M13.4583 12.7009C13.4583 12.0247 13.4583 11.6867 13.5996 11.4979C13.7228 11.3334 13.9113 11.2305 14.1162 11.2159C14.3514 11.1991 14.6358 11.3819 15.2045 11.7475L21.892 16.0467C22.3856 16.3639 22.6324 16.5226 22.7176 16.7243C22.7921 16.9006 22.7921 17.0994 22.7176 17.2757C22.6324 17.4774 22.3856 17.6361 21.892 17.9533L15.2045 22.2524C14.6358 22.6181 14.3514 22.8009 14.1162 22.7841C13.9113 22.7695 13.7228 22.6666 13.5996 22.5021C13.4583 22.3133 13.4583 21.9753 13.4583 21.2991V12.7009Z" stroke="#333333" stroke-width="1.5" stroke-linecap="round" stroke-linejoin="round"/>
</svg>