<svg xmlns="http://www.w3.org/2000/svg" width="32" height="33" viewBox="0 0 32 33" fill="none">
  <path d="M14 10.5H12V22.5H14V10.5ZM20 10.5H18V22.5H20V10.5Z" fill="#333333"/>
  <path d="M16 4.5C18.3734 4.5 20.6935 5.20379 22.6668 6.52236C24.6402 7.84094 26.1783 9.71509 27.0866 11.9078C27.9948 14.1005 28.2325 16.5133 27.7694 18.8411C27.3064 21.1689 26.1635 23.3071 24.4853 24.9853C22.8071 26.6635 20.6689 27.8064 18.3411 28.2694C16.0133 28.7324 13.6005 28.4948 11.4078 27.5866C9.21509 26.6783 7.34095 25.1402 6.02237 23.1668C4.70379 21.1935 4.00001 18.8734 4.00001 16.5C4.00001 13.3174 5.26429 10.2652 7.51472 8.01472C9.76516 5.76428 12.8174 4.5 16 4.5ZM16 2.5C13.2311 2.5 10.5243 3.32109 8.22202 4.85943C5.91973 6.39777 4.12532 8.58427 3.06569 11.1424C2.00607 13.7006 1.72882 16.5155 2.26901 19.2313C2.80921 21.947 4.14258 24.4416 6.10051 26.3995C8.05845 28.3574 10.553 29.6908 13.2687 30.231C15.9845 30.7712 18.7994 30.4939 21.3576 29.4343C23.9157 28.3747 26.1022 26.5803 27.6406 24.278C29.1789 21.9757 30 19.2689 30 16.5C30 12.787 28.525 9.22601 25.8995 6.6005C23.274 3.975 19.713 2.5 16 2.5Z" fill="#333333"/>
</svg>